<?xml version="1.0" encoding="UTF-8"?>
<svg xmlns="http://www.w3.org/2000/svg" viewBox="0 0 1454.8 1079.64">
  <path fill="#f8f1e7" d="M921.69,1079.64h288.86c5.04-1.82,10.09-3.61,15.14-5.38,74.9-26.13,151.49-46.35,229.12-60.56v-121.85c-89.88,15.22-178.55,37.89-265.14,67.88-91.77,31.79-181.29,71.87-267.98,119.9Z"/>
  <path fill="#f8f1e7" d="M473.74,1079.64h210.11c140.95-90.39,288.78-162.72,441.59-215.95,107.5-37.44,217.67-65.55,329.37-84.12v-121.57c-123.95,19.4-246.19,49.87-365.37,91.16-216.55,75.01-423.36,186.05-615.7,330.48Z"/>
  <path fill="#f8f1e7" d="M1409.07,428.36c-32.69-143.78-46.38-287.37-40.84-428.36h-120.1c-5.43,148.87,9.04,300.15,43.13,451.44-41.45,9-82.72,18.88-123.8,29.66-29.18-161.26-39.8-322.45-31.8-481.1h-120.15c-8.07,169.66,3.95,341.9,36,514.02-34.9,10.67-69.63,21.99-104.18,33.96-12.12,4.2-24.22,8.49-36.32,12.85-21.97-188.08-26.14-375.75-12.57-560.83h-120.33c-14.06,199.8-8.26,402.38,17.42,605.22-107.19,43.73-212.72,93.89-315.22,149.87C314.87,845.46,153.27,953.23,0,1075.39l3.39,4.25h189.04c111.48-81.09,226.62-154.25,343.7-218.3,144.25-78.91,294.71-145.81,447.21-198.83,153.9-53.51,311.58-93.68,471.47-120.2v-121.59c-15.26,2.43-30.5,4.97-45.73,7.64Z"/>
</svg>